<?xml version="1.0" encoding="utf-8"?>
<!-- Generator: Adobe Illustrator 16.0.3, SVG Export Plug-In . SVG Version: 6.00 Build 0)  -->
<!DOCTYPE svg PUBLIC "-//W3C//DTD SVG 1.1//EN" "http://www.w3.org/Graphics/SVG/1.1/DTD/svg11.dtd">
<svg version="1.1" id="Layer_1" xmlns="http://www.w3.org/2000/svg" xmlns:xlink="http://www.w3.org/1999/xlink" x="0px" y="0px"
	 width="391px" height="110px" viewBox="0 0 391 110" enable-background="new 0 0 391 110" xml:space="preserve">
<path fill="#FFFFFF" d="M233.35,28.5h9.334c1.465,0,2.086,0.618,2.086,2.007v27.771c0,8.252,3.699,12.88,10.951,12.88
	c7.17,0,11.029-4.628,11.029-12.88V30.507c0-1.389,0.615-2.007,2.008-2.007h9.336c1.459,0,2.078,0.618,2.078,2.007v28.695
	c0,16.274-10.336,24.298-24.916,24.298c-13.963,0-23.914-7.563-23.914-24.145V30.507C231.342,29.118,231.963,28.5,233.35,28.5"/>
<path fill="#FFFFFF" d="M208.832,46.279c0-4.557-3.303-6.209-9.584-6.209h-5.976c-0.938,0-1.177,0.322-1.177,1.184v10.287
	c0,0.947,0.239,1.26,1.177,1.26h5.976C205.842,52.801,208.832,50.598,208.832,46.279 M180.468,27.5h19.331
	c15.479,0,23.174,6.135,23.174,18.068c0,7.857-3.771,13.049-9.5,15.954l12.172,18.465c0.396,0.552,0.553,1.021,0.553,1.412
	c0,0.709-0.631,1.102-1.809,1.102h-10.604c-2.207,0-3.225-0.632-4.322-2.354l-8.886-14.303c-0.545-0.867-1.019-1.105-2.038-1.105
	h-5.268c-0.938,0-1.177,0.238-1.177,1.183v14.535c0,1.413-0.628,2.045-2.121,2.045h-9.506c-1.41,0-2.044-0.632-2.044-2.045V29.544
	C178.424,28.131,179.058,27.5,180.468,27.5"/>
<path fill="#FFFFFF" d="M169.843,74.646c0,0.562-0.399,1.121-1.199,1.84C163.057,81.12,155.782,84,147.72,84
	C130.702,84,118,71.855,118,55.317C118,38.384,130.781,26,148.355,26c8.151,0,15.173,2.96,20.613,7.514
	c0.632,0.562,0.954,1.041,0.954,1.518c0,0.477-0.156,0.875-0.555,1.437l-4.637,6.548c-0.48,0.722-0.958,1.041-1.516,1.041
	c-0.483,0-1.038-0.244-1.595-0.645c-3.674-2.635-8.147-4.633-13.338-4.633c-9.192,0-15.897,6.555-15.897,16.301
	c0,9.426,6.63,16.132,15.897,16.132c5.348,0,9.742-1.832,13.501-4.711c0.631-0.479,1.113-0.718,1.589-0.718
	c0.561,0,0.959,0.315,1.437,0.954l4.558,6.551C169.687,73.768,169.843,74.248,169.843,74.646"/>
<path fill="#336799" d="M100,34.667c0-5.104-2.771-9.861-7.231-12.414L57.231,1.92C55.036,0.664,52.535,0,50,0
	s-5.036,0.664-7.231,1.92L7.231,22.253C2.771,24.806,0,29.563,0,34.667v40.666c0,5.104,2.771,9.86,7.232,12.413l35.536,20.333
	C44.964,109.336,47.465,110,50,110s5.036-0.664,7.231-1.921l35.538-20.333c2.325-1.33,4.184-3.264,5.438-5.527
	c1.152-2.08,1.793-4.441,1.793-6.886V34.667z"/>
<path fill="#FFFFFF" d="M59.137,64.617c-0.147,0.119-0.355,0.281-0.593,0.461c-0.119-0.094-0.24-0.189-0.296-0.26
	c-1.109-1.342-3.634-5.099-4.154-5.729c-0.38-0.461-1.045-1.211-1.263-1.285c0.634-1.065,1.742-2.984,2.85-4.859
	c0.228,0.309,0.469,0.632,0.731,0.985c0,0,1.112,1.729,2.08,4.27c0.607,1.283,0.902,3.252,0.902,3.252l0.399,0.14
	c0.017,0.339,0.068,0.755,0.148,1.187C59.747,63.66,59.447,64.234,59.137,64.617 M67.649,35.119l1.717-6.572l0.164-0.264
	c0,0,0.513-0.417,0.799-0.857c0,0,0.223-0.332,0.287-0.68c0,0,0.134-0.45,0.237-0.716c7.452,6.76,18.53,16.816,22.719,20.646v-12.01
	c0-2.845-1.532-5.474-4.018-6.897L54.018,7.438C52.775,6.727,51.388,6.37,50,6.37c-1.387,0-2.774,0.356-4.017,1.067L10.447,27.771
	c-2.487,1.423-4.018,4.052-4.018,6.897v12.01C11.49,42.109,28.372,26.96,28.372,26.96c0.151-0.135,0.386-0.259,0.682-0.259
	c0.327,0,0.561,0.144,0.712,0.291l7.495,7.223c0.363,0.362,0.397,0.916,0.166,1.261l-6.398,9.603
	c-0.32,0.504-0.155,1.077,0.203,1.356c0.398,0.313,0.956,0.316,1.353-0.052l29.658-26.935c0.201-0.183,0.468-0.255,0.675-0.255
	s0.476,0.071,0.676,0.255c0,0,2.275,2.063,5.605,5.082c-0.066,0.125-0.155,0.287-0.28,0.504c0,0-0.248,0.48-0.368,0.819
	c-0.073,0.208-0.232,0.678-0.319,1.054c-0.054,0.236-0.222,0.857-0.222,0.857s-0.076,0.349-0.12,0.484
	c-0.379,1.165-1.49,3.064-1.654,3.397l-1.032,2.282c0,0-0.687,1.438-1.187,3.313c0,0-2.254,3-4.385,5.855l-0.006-0.012
	c-0.215,0.215-0.716,0.564-1.27,0.715c-0.292-0.384-0.659-0.944-0.683-0.976c-0.057-0.079-0.174-0.299-0.097-0.582
	c0.078-0.283,0.489-0.855,0.489-0.855c0.196-0.201,0.227-0.528,0.121-0.684c-0.107-0.159-0.297-0.246-0.361-0.283
	c-0.061-0.036-0.117-0.167-0.108-0.261c0.009-0.095-0.158-0.164-0.158-0.164l-0.299,0.075l-0.075,0.009l0.017-0.381
	c0,0-0.011-0.092-0.141-0.107c-0.064-0.008-0.286-0.199-0.274-0.269c0.013-0.07,0.07-0.262,0.07-0.553
	c0-0.239-0.225-0.203-0.225-0.203s-0.981-0.019-1.051-0.028c-0.068-0.008-0.306-0.141-0.377-0.232
	c-0.07-0.092-0.183-0.194-0.183-0.194c-0.155-0.084-1.097-0.26-1.235-0.248c-0.137,0.011-0.734-0.094-0.79-0.144
	c-0.056-0.052-0.338-0.171-0.558-0.289c-0.22-0.117-1.053,0.513-1.258,0.655c-0.204,0.14-0.978,0.972-1.442,1.763
	c-0.098,0.166-0.164,0.324-0.217,0.485c-0.001,0.001-0.002,0-0.004,0.001l-0.453,0.969c0,0-0.187,0.097-0.281,0.188
	c-0.193,0.173-0.295,0.54-0.295,0.54s-0.214,1.09-0.351,1.588c0,0-0.129,0.939-0.209,1.324c-0.048,0.234-0.21,1.624-0.247,1.844
	c-0.037,0.219-0.131,1.248-0.131,1.248s-0.078,0.611-0.077,0.993c0.001,0.312,0.191,0.455,0.235,0.488
	c0.043,0.032,0.331,0.222,0.331,0.222s-0.261,1.33,0.337,2.31c0,0,0.025-0.307,0.326-0.822c0,0,0.389,0.343,0.158,1.289
	c0,0,0.538-0.224,0.624-1.298l0.209-0.677c0,0,0.103,0.666,0.802,1.036c0,0-0.538-1.218-0.57-1.727
	c-0.035-0.576,0.046-1.15,0.046-1.15s0.256,0.335,0.188,1.01c0,0,0.534-1.276-0.158-3.383c-0.152-0.547-0.345-1.58-0.558-2.469
	c-0.047-0.192-0.155-0.971-0.168-1.109c-0.019-0.182,0.083-0.275,0.083-0.275c0.026,0.009,0.258,0.245,0.345,0.303
	c0.079,0.19,0.212,0.462,0.449,0.777l0.047,0.046c0,0,0.552,0.686,1.824,1.105c0.011,0.005,0.032,0.014,0.038,0.017
	c0.14,0.059,0.637,0.174,1.079,0.178c0.49,0.003,0.736-0.167,0.978-0.223c0.235-0.055,0.469,0.125,0.469,0.125
	s0.242,0.307,0.509,0.644l-0.001,0.015c0,0,0.158,0.293,0.001,0.596c-0.835,0.843-2.006,2.23-1.985,3.404
	c0,0,0.005,0.008,0.005,0.009c-1.336,2.852-3.131,7.364-3.334,7.823c0,0-0.24,0.567-0.25,1.004
	c-0.024,0.321,0.315,0.554,0.523,0.819c0.127,0.162,0.475,0.671,0.625,0.849c0.559,0.66,1.112,1.177,1.778,1.836l4.718,4.22
	c-0.389,0.239-0.804,0.478-1.232,0.684c0.046,1.83,2.707,4.285,2.707,4.285c1.974,0.084,2.843-1.715,2.843-1.715
	c-0.03-1.739-1.514-4.002-1.514-4.002l-0.262-0.431c0.196-0.323,0.356-0.678,0.489-1.06c0.118,0.326,0.258,0.646,0.451,0.937
	c0,0,1.042,1.466,2.752,1.757c0.671,0.555,4.324,3.359,10.863,4.635c0.051,0.108,0.101,0.229,0.151,0.373
	c0.124,0.362,0.51,1.752,0.629,2.06c0.229,0.585,0.714,1.642,1.464,2.819l1.812,2.85l0.423-0.068
	c0.171,0.275,0.365,0.709,0.213,1.107c0,0-1.409,0.947,0.033,2.706c0,0,0.315,0.205,0.601,0.165c0.514-0.072,1.17,0.092,1.989,1.016
	c0,0,1.068,1.256,2.195,1.084l0.9-0.256c0,0,0.782-0.197-0.571-1.916c-0.956-1.214-1.097-1.666-1.558-2.117
	c-0.461-0.449-1.068-0.846-1.068-0.846l-0.916-2.373l0.148-0.289L79.472,74.6l-2.18-5.246c-0.104-0.32,0.01-0.896-0.367-1.313
	c0.002-0.002-0.167-0.198-0.317-0.298c-0.23-0.164-0.48-0.314-0.74-0.447l-6.573-4.282c0,0,2.12,0.111,7.732-3.529
	c0.642,0.6,2.056,1.285,3.127,1.541c2.005,0.481,4.07,1.285,4.07,1.285s0.156-0.08,0.244-0.403c0,0,1.244,0.282,2.227,0.851
	c0.085,0.065,0.128,0.143,0.175,0.252c0,0-0.147,0.238-0.125,0.375c0.023,0.135,0.5,0.317,0.5,0.317s0.773,1.249,1.48,0.911
	c0,0,0.888-0.277,1.083-0.879c0,0,0.203-1.032,1.759-1.625c0,0,1.556-0.592,1.898-1.644c0,0,0.531-1.226-1.546-0.771l-2.664,0.916
	l-1.702,0.562L85.16,59.9c0.003-0.127-0.029-0.172-0.029-0.172l-1.675-0.776c-0.903-0.573-3.136-1.968-4.552-2.644
	c-0.357-0.201-0.778-0.423-0.777-0.425c-0.688-0.341-0.571-0.658-1.956-0.229l-9.731,2.693c-0.387-0.757-1.268-2.572-1.475-3.811
	l-1.13-3.604c0,0,1.377-1.126,0.776-2.348c0,0-0.092-0.217-0.725-0.748c0,0-0.668-0.556-1.488-1.347
	c1.484-2.898,3.646-6.926,4.213-8.343C66.611,38.145,67.271,36.845,67.649,35.119"/>
<g>
	<path fill="#FFFFFF" d="M336.863,77.658c0.6,0.966,0.986,1.736,1.166,2.314c0.184,0.58,0.076,1.021-0.318,1.323
		c-0.396,0.304-1.117,0.497-2.16,0.58c-1.041,0.082-2.486,0.123-4.338,0.123c-1.557,0-2.779-0.028-3.674-0.082
		c-0.893-0.058-1.596-0.146-2.107-0.271c-0.514-0.123-0.885-0.295-1.115-0.517c-0.23-0.221-0.43-0.496-0.596-0.827l-12.057-19.31
		l-12.004,19.31c-0.197,0.331-0.414,0.606-0.645,0.827c-0.232,0.222-0.604,0.394-1.115,0.517c-0.514,0.123-1.225,0.213-2.135,0.271
		C294.857,81.973,293.658,82,292.17,82c-1.721,0-3.051-0.041-3.992-0.123c-0.943-0.083-1.58-0.275-1.912-0.58
		c-0.33-0.303-0.396-0.742-0.197-1.322c0.197-0.578,0.611-1.351,1.24-2.315l15.377-23.361L288.4,32.342
		c-0.596-0.993-1.002-1.785-1.217-2.377c-0.215-0.593-0.133-1.034,0.248-1.323c0.379-0.29,1.084-0.469,2.109-0.538
		c1.025-0.068,2.479-0.104,4.365-0.104c1.555,0,2.785,0.028,3.695,0.083c0.906,0.056,1.629,0.145,2.154,0.269
		c0.531,0.125,0.902,0.297,1.117,0.517c0.215,0.221,0.422,0.496,0.621,0.827l11.262,17.697l10.963-17.697
		c0.199-0.331,0.402-0.605,0.621-0.827c0.215-0.22,0.561-0.393,1.043-0.517c0.477-0.124,1.139-0.213,1.98-0.269
		c0.844-0.055,2.01-0.083,3.496-0.083c1.654,0,2.961,0.035,3.92,0.104s1.621,0.255,1.984,0.558c0.363,0.304,0.453,0.745,0.273,1.323
		c-0.184,0.579-0.555,1.364-1.115,2.357l-14.289,21.831L336.863,77.658z"/>
</g>
</svg>
