<?xml version="1.0" encoding="utf-8"?>
<!-- Generator: Adobe Illustrator 16.0.3, SVG Export Plug-In . SVG Version: 6.00 Build 0)  -->
<!DOCTYPE svg PUBLIC "-//W3C//DTD SVG 1.1//EN" "http://www.w3.org/Graphics/SVG/1.1/DTD/svg11.dtd">
<svg version="1.1" id="Layer_1" xmlns="http://www.w3.org/2000/svg" xmlns:xlink="http://www.w3.org/1999/xlink" x="0px" y="0px"
	 width="397.529px" height="114.5px" viewBox="0 0 397.529 114.5" enable-background="new 0 0 397.529 114.5" xml:space="preserve">
<g>
	<g>
		<path fill="#336799" d="M108.926,36.917c0-5.104-2.771-9.861-7.23-12.414L66.157,4.17c-2.195-1.256-4.696-1.92-7.231-1.92
			s-5.036,0.664-7.23,1.92L16.157,24.503c-4.46,2.553-7.231,7.31-7.231,12.414v40.666c0,5.104,2.771,9.86,7.232,12.413
			l35.536,20.333c2.195,1.257,4.696,1.921,7.231,1.921s5.036-0.664,7.231-1.921l35.538-20.333c2.324-1.33,4.184-3.264,5.438-5.527
			c1.152-2.08,1.793-4.441,1.793-6.886V36.917L108.926,36.917z"/>
		<path fill="#FFFFFF" d="M68.063,66.867c-0.146,0.119-0.354,0.281-0.593,0.461c-0.119-0.094-0.24-0.189-0.296-0.26
			c-1.109-1.342-3.634-5.101-4.154-5.729c-0.38-0.461-1.045-1.211-1.263-1.284c0.634-1.064,1.742-2.984,2.85-4.859
			c0.229,0.309,0.47,0.632,0.731,0.984c0,0,1.112,1.729,2.08,4.271c0.607,1.281,0.902,3.252,0.902,3.252l0.398,0.14
			c0.018,0.341,0.068,0.757,0.148,1.188C68.673,65.91,68.373,66.484,68.063,66.867 M76.575,37.369l1.717-6.572l0.164-0.264
			c0,0,0.513-0.417,0.799-0.857c0,0,0.223-0.332,0.287-0.68c0,0,0.134-0.45,0.237-0.716c7.451,6.76,18.529,16.816,22.719,20.646
			v-12.01c0-2.845-1.532-5.474-4.019-6.897L62.945,9.688c-1.243-0.711-2.631-1.068-4.019-1.068c-1.387,0-2.773,0.356-4.017,1.067
			L19.373,30.021c-2.487,1.423-4.019,4.052-4.019,6.897v12.01c5.062-4.569,21.943-19.718,21.943-19.718
			c0.151-0.135,0.386-0.259,0.682-0.259c0.327,0,0.562,0.144,0.713,0.291l7.494,7.223c0.363,0.362,0.397,0.916,0.166,1.261
			l-6.397,9.603c-0.32,0.504-0.155,1.077,0.203,1.356c0.397,0.313,0.956,0.316,1.353-0.052l29.658-26.935
			c0.201-0.183,0.468-0.255,0.675-0.255s0.477,0.071,0.676,0.255c0,0,2.275,2.063,5.605,5.082c-0.066,0.125-0.155,0.287-0.28,0.504
			c0,0-0.248,0.48-0.368,0.819c-0.072,0.208-0.231,0.678-0.318,1.054c-0.055,0.236-0.223,0.857-0.223,0.857
			s-0.075,0.349-0.119,0.484c-0.38,1.165-1.49,3.064-1.654,3.397l-1.032,2.282c0,0-0.687,1.438-1.187,3.313c0,0-2.255,3-4.386,5.854
			l-0.006-0.012c-0.215,0.215-0.716,0.564-1.27,0.715c-0.292-0.384-0.659-0.944-0.684-0.976c-0.057-0.079-0.174-0.299-0.097-0.582
			c0.078-0.283,0.489-0.855,0.489-0.855c0.195-0.201,0.227-0.528,0.121-0.684c-0.107-0.159-0.297-0.246-0.361-0.283
			c-0.061-0.036-0.117-0.167-0.108-0.261c0.01-0.095-0.157-0.164-0.157-0.164l-0.3,0.075l-0.074,0.009l0.017-0.381
			c0,0-0.011-0.092-0.141-0.107c-0.064-0.008-0.286-0.199-0.274-0.269c0.013-0.07,0.07-0.262,0.07-0.553
			c0-0.239-0.226-0.203-0.226-0.203s-0.98-0.019-1.051-0.028c-0.068-0.008-0.306-0.141-0.377-0.232
			c-0.07-0.092-0.183-0.194-0.183-0.194c-0.155-0.084-1.098-0.26-1.235-0.248c-0.137,0.011-0.734-0.094-0.79-0.144
			c-0.056-0.052-0.338-0.171-0.558-0.289c-0.221-0.117-1.054,0.513-1.259,0.655c-0.203,0.14-0.978,0.972-1.441,1.763
			c-0.098,0.166-0.164,0.324-0.217,0.485c-0.001,0.001-0.002,0-0.004,0.001l-0.453,0.969c0,0-0.188,0.097-0.281,0.188
			c-0.193,0.173-0.295,0.54-0.295,0.54s-0.214,1.09-0.352,1.588c0,0-0.129,0.939-0.209,1.324c-0.048,0.234-0.21,1.624-0.246,1.844
			c-0.037,0.219-0.132,1.248-0.132,1.248s-0.078,0.611-0.076,0.993c0.001,0.312,0.19,0.455,0.234,0.488
			c0.043,0.032,0.331,0.222,0.331,0.222s-0.261,1.33,0.337,2.31c0,0,0.025-0.307,0.326-0.822c0,0,0.389,0.343,0.158,1.289
			c0,0,0.538-0.224,0.624-1.298l0.209-0.677c0,0,0.103,0.666,0.802,1.036c0,0-0.538-1.218-0.57-1.727
			c-0.034-0.576,0.046-1.15,0.046-1.15s0.257,0.335,0.188,1.01c0,0,0.534-1.276-0.158-3.383c-0.151-0.547-0.345-1.58-0.558-2.469
			c-0.047-0.192-0.155-0.971-0.168-1.109c-0.02-0.182,0.083-0.275,0.083-0.275c0.025,0.009,0.258,0.245,0.345,0.303
			c0.079,0.19,0.212,0.462,0.449,0.777l0.047,0.046c0,0,0.552,0.686,1.824,1.105c0.011,0.005,0.031,0.014,0.038,0.017
			c0.14,0.059,0.637,0.174,1.079,0.178c0.489,0.003,0.735-0.167,0.978-0.223c0.235-0.055,0.469,0.125,0.469,0.125
			s0.242,0.307,0.509,0.644l-0.001,0.015c0,0,0.158,0.293,0.001,0.596c-0.835,0.843-2.006,2.23-1.984,3.404
			c0,0,0.005,0.008,0.005,0.009c-1.336,2.853-3.131,7.364-3.334,7.823c0,0-0.24,0.565-0.25,1.004
			c-0.024,0.321,0.314,0.556,0.522,0.819c0.128,0.16,0.476,0.671,0.625,0.849c0.56,0.66,1.112,1.179,1.778,1.836l4.718,4.222
			c-0.389,0.237-0.804,0.478-1.231,0.684c0.046,1.83,2.707,4.285,2.707,4.285c1.974,0.084,2.843-1.715,2.843-1.715
			c-0.03-1.739-1.514-4.002-1.514-4.002l-0.263-0.433c0.196-0.321,0.356-0.678,0.489-1.062c0.118,0.326,0.258,0.646,0.451,0.938
			c0,0,1.042,1.468,2.752,1.759c0.671,0.555,4.324,3.357,10.863,4.635c0.051,0.106,0.101,0.229,0.15,0.373
			c0.124,0.36,0.511,1.752,0.629,2.06c0.229,0.585,0.715,1.642,1.465,2.819l1.812,2.85l0.423-0.068
			c0.171,0.275,0.365,0.709,0.213,1.107c0,0-1.409,0.947,0.033,2.706c0,0,0.315,0.205,0.602,0.165
			c0.514-0.072,1.17,0.092,1.988,1.016c0,0,1.068,1.256,2.195,1.084l0.9-0.256c0,0,0.781-0.197-0.571-1.916
			c-0.956-1.214-1.097-1.666-1.559-2.117c-0.461-0.449-1.067-0.846-1.067-0.846l-0.916-2.373l0.147-0.289l-1.246-2.824l-2.18-5.246
			c-0.104-0.318,0.01-0.896-0.367-1.313c0.002-0.002-0.167-0.198-0.316-0.298c-0.23-0.164-0.48-0.313-0.74-0.447l-6.573-4.282
			c0,0,2.12,0.111,7.732-3.529c0.642,0.602,2.056,1.285,3.127,1.541c2.005,0.481,4.07,1.285,4.07,1.285s0.155-0.08,0.243-0.401
			c0,0,1.244,0.28,2.228,0.851c0.085,0.065,0.128,0.145,0.175,0.252c0,0-0.146,0.238-0.125,0.375c0.023,0.137,0.5,0.317,0.5,0.317
			s0.773,1.249,1.48,0.911c0,0,0.888-0.277,1.083-0.881c0,0,0.202-1.03,1.759-1.625c0,0,1.556-0.592,1.897-1.644
			c0,0,0.531-1.226-1.546-0.771l-2.664,0.916l-1.702,0.562l-2.393-1.272c0.003-0.127-0.029-0.172-0.029-0.172l-1.675-0.775
			c-0.903-0.573-3.136-1.969-4.552-2.645c-0.357-0.201-0.778-0.424-0.777-0.426c-0.688-0.341-0.57-0.658-1.956-0.229l-9.73,2.693
			c-0.388-0.759-1.269-2.572-1.476-3.813l-1.13-3.604c0,0,1.377-1.126,0.776-2.348c0,0-0.092-0.217-0.726-0.748
			c0,0-0.668-0.556-1.487-1.347c1.483-2.898,3.646-6.926,4.213-8.343C75.537,40.395,76.198,39.095,76.575,37.369"/>
	</g>
	<g>
		<path fill="#FFFFFF" d="M263.103,14.125h11.181c1.755,0,2.499,0.741,2.499,2.404v33.268c0,9.885,4.43,15.43,13.117,15.43
			c8.59,0,13.213-5.545,13.213-15.43V16.529c0-1.663,0.736-2.404,2.404-2.404h11.184c1.747,0,2.489,0.741,2.489,2.404v34.375
			c0,19.495-12.381,29.106-29.847,29.106c-16.726,0-28.647-9.059-28.647-28.923V16.529
			C260.696,14.866,261.441,14.125,263.103,14.125"/>
		<path fill="#FFFFFF" d="M233.732,35.422c0-5.458-3.956-7.438-11.481-7.438h-7.158c-1.125,0-1.41,0.386-1.41,1.418v12.323
			c0,1.134,0.285,1.509,1.41,1.509h7.158C230.15,43.235,233.732,40.597,233.732,35.422 M199.755,12.927h23.156
			c18.543,0,27.761,7.349,27.761,21.644c0,9.412-4.517,15.632-11.381,19.111l14.583,22.119c0.474,0.664,0.662,1.225,0.662,1.691
			c0,0.85-0.757,1.322-2.168,1.322h-12.702c-2.644,0-3.862-0.758-5.178-2.82l-10.645-17.135c-0.654-1.037-1.22-1.321-2.441-1.321
			h-6.31c-1.125,0-1.412,0.284-1.412,1.417v17.412c0,1.693-0.752,2.449-2.54,2.449h-11.389c-1.688,0-2.448-0.756-2.448-2.449V15.375
			C197.306,13.683,198.067,12.927,199.755,12.927"/>
		<path fill="#FFFFFF" d="M187.027,69.404c0,0.672-0.477,1.342-1.435,2.203c-6.692,5.551-15.406,9.002-25.064,9.002
			c-20.385,0-35.601-14.549-35.601-34.361c0-20.285,15.311-35.118,36.363-35.118c9.764,0,18.176,3.545,24.691,9.001
			c0.758,0.673,1.142,1.247,1.142,1.818s-0.185,1.048-0.663,1.721l-5.555,7.844c-0.575,0.865-1.147,1.247-1.816,1.247
			c-0.578,0-1.244-0.292-1.91-0.773c-4.4-3.157-9.76-5.549-15.978-5.549c-11.011,0-19.044,7.852-19.044,19.527
			c0,11.291,7.943,19.324,19.044,19.324c6.406,0,11.67-2.195,16.173-5.643c0.756-0.574,1.333-0.861,1.903-0.861
			c0.672,0,1.148,0.379,1.722,1.145l5.459,7.848C186.842,68.352,187.027,68.926,187.027,69.404"/>
		<g>
			<path fill="#FFFFFF" d="M387.1,73.012c0.72,1.156,1.181,2.08,1.397,2.771c0.221,0.693,0.092,1.223-0.381,1.584
				c-0.474,0.367-1.339,0.596-2.588,0.695c-1.247,0.098-2.976,0.146-5.196,0.146c-1.865,0-3.329-0.033-4.401-0.098
				c-1.07-0.072-1.911-0.176-2.523-0.324c-0.616-0.148-1.061-0.354-1.334-0.621c-0.276-0.264-0.518-0.594-0.717-0.99l-14.442-23.13
				l-14.38,23.13c-0.236,0.396-0.495,0.727-0.772,0.99c-0.277,0.268-0.724,0.473-1.335,0.621c-0.618,0.148-1.469,0.256-2.559,0.324
				c-1.087,0.068-2.522,0.1-4.308,0.1c-2.061,0-3.653-0.049-4.782-0.146c-1.129-0.1-1.893-0.328-2.29-0.695
				c-0.395-0.363-0.475-0.889-0.235-1.582c0.235-0.693,0.731-1.619,1.484-2.773L346.16,45.03l-17.112-26.303
				c-0.715-1.189-1.201-2.138-1.459-2.847c-0.259-0.71-0.16-1.238,0.297-1.585c0.454-0.347,1.299-0.562,2.525-0.644
				c1.229-0.082,2.97-0.125,5.229-0.125c1.863,0,3.336,0.033,4.426,0.099c1.085,0.067,1.952,0.174,2.58,0.322
				c0.637,0.15,1.081,0.355,1.339,0.62c0.257,0.264,0.505,0.594,0.743,0.99l13.491,21.2l13.132-21.2
				c0.239-0.396,0.482-0.725,0.744-0.99c0.258-0.264,0.674-0.471,1.25-0.62c0.573-0.148,1.364-0.255,2.372-0.322
				c1.011-0.066,2.407-0.099,4.188-0.099c1.979,0,3.547,0.042,4.694,0.125c1.149,0.083,1.942,0.305,2.376,0.668
				c0.435,0.364,0.542,0.893,0.327,1.584c-0.223,0.693-0.664,1.634-1.336,2.823l-17.117,26.152L387.1,73.012z"/>
		</g>
		<g>
			<path fill="#FFFFFF" d="M128.903,91.621c0.235-0.621,0.67-0.838,1.343-0.838h0.654c0.62,0,1.173,0.152,1.475,1.006l3.322,9.248
				c0.101,0.268,0.268,0.756,0.268,1.057c0,0.672-0.586,1.207-1.292,1.207c-0.604,0-1.039-0.217-1.24-0.754l-0.705-2.014h-4.43
				l-0.722,2.014c-0.183,0.537-0.571,0.754-1.225,0.754c-0.755,0-1.275-0.469-1.275-1.207c0-0.301,0.168-0.789,0.269-1.057
				L128.903,91.621z M130.564,93.77h-0.034l-1.627,4.85h3.221L130.564,93.77z"/>
			<path fill="#FFFFFF" d="M142.436,92.143c0-1.107,0.754-1.359,1.494-1.359h0.805c0.855,0,1.259,0.334,1.544,1.26l2.399,7.75h0.034
				l2.365-7.75c0.285-0.926,0.688-1.26,1.544-1.26h0.773c0.737,0,1.493,0.252,1.493,1.359v9.816c0,0.688-0.335,1.342-1.224,1.342
				c-0.889,0-1.225-0.654-1.225-1.342v-7.482h-0.033l-2.569,8.02c-0.183,0.57-0.604,0.805-1.173,0.805
				c-0.571,0-0.99-0.234-1.175-0.805l-2.566-8.02h-0.034v7.482c0,0.688-0.336,1.342-1.225,1.342c-0.889,0-1.225-0.654-1.225-1.342
				v-9.816H142.436z"/>
			<path fill="#FFFFFF" d="M162.932,90.717c3.96,0,6.108,2.633,6.108,6.176c0,3.406-1.98,6.477-6.108,6.477
				c-4.329,0-6.109-2.818-6.109-6.477C156.823,93.35,158.971,90.717,162.932,90.717z M162.932,101.152
				c2.5,0,3.356-1.945,3.356-4.262c0-2.314-1.107-3.959-3.356-3.959c-2.249,0-3.356,1.645-3.356,3.959
				C159.576,99.207,160.348,101.152,162.932,101.152z"/>
			<path fill="#FFFFFF" d="M171.029,92.16c0-0.822,0.537-1.375,1.376-1.375c0.838,0,1.375,0.555,1.375,1.375v6.611
				c0,1.646,0.922,2.381,2.5,2.381s2.499-0.734,2.499-2.381V92.16c0-0.822,0.538-1.375,1.377-1.375c0.838,0,1.375,0.555,1.375,1.375
				v6.395c0,3.32-2.047,4.814-5.253,4.814c-3.203,0-5.25-1.492-5.25-4.814L171.029,92.16L171.029,92.16z"/>
			<path fill="#FFFFFF" d="M184.009,92.395c0-1.141,0.554-1.611,1.727-1.611c0.572,0,1.074,0.219,1.376,0.723l4.817,7.77h0.031
				v-7.164c0-0.891,0.505-1.326,1.326-1.326c0.822,0,1.325,0.436,1.325,1.326v9.48c0,1.09-0.471,1.709-1.628,1.709
				c-0.874,0-1.157-0.184-1.512-0.734l-4.78-7.555h-0.033v6.965c0,0.889-0.502,1.324-1.324,1.324s-1.325-0.436-1.325-1.324V92.395z"
				/>
			<path fill="#FFFFFF" d="M200.043,93.318h-2.601c-0.79,0-1.428-0.402-1.428-1.158s0.638-1.16,1.428-1.16h7.954
				c0.787,0,1.425,0.404,1.425,1.16s-0.638,1.158-1.425,1.158h-2.603v8.607c0,0.822-0.537,1.375-1.375,1.375
				s-1.375-0.555-1.375-1.375L200.043,93.318L200.043,93.318z"/>
			<path fill="#FFFFFF" d="M210.054,91.621c0.234-0.621,0.672-0.838,1.343-0.838h0.654c0.621,0,1.174,0.152,1.475,1.006l3.322,9.248
				c0.102,0.268,0.271,0.756,0.271,1.057c0,0.672-0.588,1.207-1.293,1.207c-0.604,0-1.039-0.217-1.242-0.754l-0.703-2.014h-4.43
				l-0.723,2.014c-0.185,0.537-0.57,0.754-1.224,0.754c-0.757,0-1.274-0.469-1.274-1.207c0-0.301,0.166-0.789,0.267-1.057
				L210.054,91.621z M211.715,93.77h-0.032l-1.628,4.85h3.222L211.715,93.77z"/>
			<path fill="#FFFFFF" d="M218.522,92.16c0-0.822,0.536-1.375,1.375-1.375s1.375,0.555,1.375,1.375v9.766
				c0,0.822-0.536,1.375-1.375,1.375s-1.375-0.555-1.375-1.375V92.16z"/>
			<path fill="#FFFFFF" d="M223.754,92.395c0-1.141,0.555-1.611,1.729-1.611c0.569,0,1.072,0.219,1.374,0.723l4.815,7.77h0.033
				v-7.164c0-0.891,0.506-1.326,1.325-1.326c0.824,0,1.327,0.436,1.327,1.326v9.48c0,1.09-0.471,1.709-1.629,1.709
				c-0.873,0-1.157-0.184-1.51-0.734l-4.782-7.555h-0.034v6.965c0,0.889-0.503,1.324-1.324,1.324c-0.822,0-1.325-0.436-1.325-1.324
				V92.395z"/>
			<path fill="#FFFFFF" d="M241.951,92.613c0-1.225,0.636-1.613,1.61-1.613h4.211c2.318,0,4.179,1.143,4.179,3.826
				c0,2.199-1.526,3.826-4.195,3.826h-3.053v3.27c0,0.824-0.538,1.377-1.376,1.377c-0.839,0-1.375-0.555-1.375-1.377L241.951,92.613
				L241.951,92.613z M244.703,96.539h2.566c1.109,0,1.93-0.67,1.93-1.711c0-1.209-0.855-1.711-2.215-1.711h-2.281V96.539z"/>
			<path fill="#FFFFFF" d="M253.739,92.613c0-1.225,0.638-1.613,1.611-1.613h4.581c3.272,0,4.145,1.797,4.145,3.355
				c0,1.311-0.771,2.604-2.081,2.904v0.035c1.411,0.201,1.663,1.223,1.663,2.449c0,1.393,0.369,1.912,0.369,2.482
				c0,0.639-0.655,1.072-1.291,1.072c-1.512,0-1.628-1.461-1.628-1.947c0-2.111-0.386-2.969-1.896-2.969h-2.72v3.539
				c0,0.824-0.538,1.377-1.374,1.377c-0.84,0-1.377-0.555-1.377-1.377v-9.309H253.739z M256.492,96.371h2.752
				c1.04,0,2.08-0.27,2.08-1.627c0-1.293-0.789-1.627-1.996-1.627h-2.836V96.371z"/>
			<path fill="#FFFFFF" d="M271.721,90.717c3.961,0,6.108,2.633,6.108,6.176c0,3.406-1.98,6.477-6.108,6.477
				c-4.329,0-6.109-2.818-6.109-6.477C265.612,93.35,267.76,90.717,271.721,90.717z M271.721,101.152c2.5,0,3.354-1.945,3.354-4.262
				c0-2.314-1.106-3.959-3.354-3.959c-2.249,0-3.356,1.645-3.356,3.959C268.365,99.207,269.136,101.152,271.721,101.152z"/>
			<path fill="#FFFFFF" d="M286.898,99.307c0,2.535-1.408,4.063-4.126,4.063c-3.307,0-3.926-2.197-3.926-3.391
				c0-1.021,0.471-1.678,1.308-1.678c0.991,0,1.242,0.773,1.242,1.594c0,0.789,0.37,1.359,1.343,1.359
				c0.906,0,1.409-0.67,1.409-1.979v-7.113c0-0.822,0.538-1.375,1.376-1.375c0.84,0,1.374,0.553,1.374,1.375V99.307z"/>
			<path fill="#FFFFFF" d="M289.495,92.613c0-1.225,0.637-1.613,1.611-1.613h6.46c0.806,0,1.393,0.236,1.393,1.107
				c0,0.875-0.587,1.109-1.393,1.109h-5.317v2.617h4.665c0.722,0,1.292,0.203,1.292,1.059c0,0.854-0.571,1.057-1.292,1.057h-4.665
				v2.92h5.453c0.807,0,1.393,0.234,1.393,1.109c0,0.871-0.586,1.107-1.393,1.107h-6.595c-0.975,0-1.611-0.387-1.611-1.613
				L289.495,92.613L289.495,92.613z"/>
			<path fill="#FFFFFF" d="M306.419,90.717c3.155,0,4.883,1.98,4.883,3.156c0,0.771-0.42,1.238-1.242,1.238
				c-1.594,0-1.122-2.178-3.641-2.178c-1.727,0-3.154,1.492-3.154,4.111c0,2.199,0.874,4.111,3.255,4.111
				c2.165,0,2.116-2.316,3.44-2.316c0.672,0,1.342,0.385,1.342,1.057c0,1.746-2.114,3.473-4.782,3.473
				c-3.774,0-6.007-2.164-6.007-6.324C300.512,93.637,302.525,90.717,306.419,90.717z"/>
			<path fill="#FFFFFF" d="M315.943,93.318h-2.601c-0.79,0-1.427-0.402-1.427-1.158s0.637-1.16,1.427-1.16h7.954
				c0.788,0,1.426,0.404,1.426,1.16s-0.638,1.158-1.426,1.158h-2.602v8.607c0,0.822-0.535,1.375-1.375,1.375
				c-0.839,0-1.376-0.555-1.376-1.375L315.943,93.318L315.943,93.318z"/>
			<path fill="#FFFFFF" d="M334.811,90.717c3.154,0,4.882,1.98,4.882,3.156c0,0.771-0.419,1.238-1.24,1.238
				c-1.595,0-1.123-2.178-3.642-2.178c-1.727,0-3.155,1.492-3.155,4.111c0,2.199,0.873,4.111,3.258,4.111
				c2.165,0,2.113-2.316,3.438-2.316c0.672,0,1.341,0.385,1.341,1.057c0,1.746-2.113,3.473-4.779,3.473
				c-3.775,0-6.01-2.164-6.01-6.324C328.904,93.637,330.919,90.717,334.811,90.717z"/>
			<path fill="#FFFFFF" d="M341.383,92.16c0-0.822,0.538-1.375,1.375-1.375c0.839,0,1.376,0.555,1.376,1.375v8.607h4.597
				c0.79,0,1.427,0.404,1.427,1.158c0,0.756-0.637,1.16-1.427,1.16h-5.737c-0.973,0-1.612-0.387-1.612-1.613V92.16H341.383z"/>
			<path fill="#FFFFFF" d="M357.182,90.717c3.962,0,6.109,2.633,6.109,6.176c0,3.406-1.979,6.477-6.109,6.477
				c-4.328,0-6.107-2.818-6.107-6.477C351.075,93.35,353.222,90.717,357.182,90.717z M357.182,101.152
				c2.5,0,3.357-1.945,3.357-4.262c0-2.314-1.107-3.959-3.357-3.959c-2.248,0-3.355,1.645-3.355,3.959
				C353.827,99.207,354.6,101.152,357.182,101.152z"/>
			<path fill="#FFFFFF" d="M365.232,92.395c0-1.141,0.553-1.611,1.726-1.611c0.571,0,1.074,0.219,1.376,0.723l4.815,7.77h0.033
				v-7.164c0-0.891,0.504-1.326,1.327-1.326c0.82,0,1.324,0.436,1.324,1.326v9.48c0,1.09-0.47,1.709-1.628,1.709
				c-0.872,0-1.157-0.184-1.511-0.734l-4.783-7.555h-0.03v6.965c0,0.889-0.504,1.324-1.326,1.324c-0.821,0-1.323-0.436-1.323-1.324
				V92.395z"/>
			<path fill="#FFFFFF" d="M378.379,92.613c0-1.225,0.637-1.613,1.61-1.613h6.462c0.806,0,1.394,0.236,1.394,1.107
				c0,0.875-0.588,1.109-1.394,1.109h-5.319v2.617h4.666c0.721,0,1.291,0.203,1.291,1.059c0,0.854-0.571,1.057-1.291,1.057h-4.666
				v2.92h5.454c0.806,0,1.392,0.234,1.392,1.109c0,0.871-0.586,1.107-1.392,1.107h-6.596c-0.974,0-1.61-0.387-1.61-1.613
				L378.379,92.613L378.379,92.613z"/>
		</g>
	</g>
</g>
</svg>
