<svg height="110" viewBox="0 0 391 110" width="391" xmlns="http://www.w3.org/2000/svg"><g fill="none" fill-rule="evenodd"><g fill="#fff" transform="translate(119 22)"><path d="m1.3907.854c.649 0 1.253.5 2.155 1.501l14.418 15.622 14.368-15.622c.952-1.001 1.501-1.501 2.155-1.501.848 0 1.199.703 1.199 1.902v32.344c0 .897-.401 1.302-1.302 1.302h-6.059c-.898 0-1.349-.405-1.349-1.302v-15.121l-7.159 8.16c-.902 1.005-1.353 1.352-1.903 1.352-.5 0-.955-.302-1.853-1.352l-7.159-8.16v15.121c0 .897-.401 1.302-1.352 1.302h-6.055c-.906 0-1.303-.405-1.303-1.302v-32.344c0-1.199.397-1.902 1.199-1.902"/><path d="m69.9195 18.9282c0-6.208-4.256-10.215-9.765-10.215-5.554 0-9.711 4.061-9.711 10.215 0 6.109 4.107 10.113 9.662 10.113 5.509 0 9.814-4.053 9.814-10.113m-9.765-18.223c10.915 0 18.777 7.556 18.777 18.174 0 10.662-7.911 18.173-18.876 18.173-10.762 0-18.624-7.461-18.624-18.074 0-10.663 7.908-18.273 18.723-18.273"/><path d="m85.5269 1.3545h6.059c.951 0 1.353.401 1.353 1.303v18.024c0 5.356 2.402 8.359 7.109 8.359 4.653 0 7.159-3.003 7.159-8.359v-18.024c0-.902.398-1.303 1.303-1.303h6.059c.947 0 1.349.401 1.349 1.303v18.624c0 10.563-6.709 15.77-16.172 15.77-9.062 0-15.522-4.909-15.522-15.671v-18.723c0-.902.405-1.303 1.303-1.303"/><path d="m124.5035.7036c.699 0 1.398.5 2.602 1.65l18.024 16.925v-16.623c0-.897.401-1.303 1.303-1.303h6.055c.901 0 1.352.406 1.352 1.303v32.443c0 1.253-.347 1.952-1.203 1.952-.699 0-1.398-.5-2.602-1.65l-18.02-16.925v16.623c0 .901-.401 1.302-1.353 1.302h-6.059c-.901 0-1.303-.401-1.303-1.302v-32.443c0-1.249.352-1.952 1.204-1.952"/><path d="m167.1163 9.3647h-7.908c-.902 0-1.307-.397-1.307-1.303v-5.405c0-.898.405-1.303 1.307-1.303h26.032c.901 0 1.299.405 1.299 1.303v5.405c0 .906-.398 1.303-1.299 1.303h-7.908c-.554 0-.753.203-.753.753v24.981c0 .902-.401 1.303-1.302 1.303h-6.109c-.902 0-1.299-.401-1.299-1.303v-24.981c0-.55-.203-.753-.753-.753"/><path d="m205.3897 22.7832c0-.104 0-.252-.104-.397l-3.25-6.915-3.255 6.915c-.099.145-.149.293-.149.397 0 .252.198.352.55.352h5.658c.401 0 .55-.1.55-.352m-3.206-22.177c.952 0 1.651.649 2.656 2.651l15.667 31.491c.202.352.252.654.252.902 0 .55-.401.753-1.1.753h-6.361c-1.249 0-1.65-.203-2.151-1.303l-1.952-4.157c-.252-.55-.401-.649-.951-.649h-12.417c-.549 0-.698.099-.951.649l-1.902 4.157c-.501 1.1-.902 1.303-2.105 1.303h-6.105c-.703 0-1.154-.203-1.154-.753 0-.248.05-.55.252-.902l15.667-31.491c1.006-2.002 1.654-2.651 2.655-2.651"/><path d="m225.6714 1.3545h6.059c.951 0 1.353.401 1.353 1.303v32.442c0 .898-.402 1.303-1.353 1.303h-6.059c-.897 0-1.303-.405-1.303-1.303v-32.442c0-.902.406-1.303 1.303-1.303"/><path d="m241.8765.7036c.703 0 1.402.5 2.602 1.65l18.024 16.925v-16.623c0-.897.401-1.303 1.303-1.303h6.059c.902 0 1.348.406 1.348 1.303v32.443c0 1.253-.347 1.952-1.199 1.952-.703 0-1.402-.5-2.602-1.65l-18.024-16.925v16.623c0 .901-.401 1.302-1.352 1.302h-6.055c-.906 0-1.303-.401-1.303-1.302v-32.443c0-1.249.347-1.952 1.199-1.952"/><path d="m9.9425 53.7939c0-1.677-1.127-2.355-3.404-2.355h-1.629c-.3 0-.375.102-.375.376v4.057c0 .275.075.374.375.374h1.629c2.202 0 3.404-.801 3.404-2.452m-9.114-6.361h5.885c5.132 0 7.735 2.079 7.735 6.335 0 4.283-2.803 6.484-7.91 6.484h-1.629c-.3 0-.375.102-.375.377v3.681c0 .449-.2.65-.676.65h-3.03c-.45 0-.652-.201-.652-.65v-16.226c0-.45.202-.651.652-.651"/><path d="m26.6285 53.418c0-1.452-1.052-1.979-3.054-1.979h-1.904c-.299 0-.375.103-.375.377v3.279c0 .302.076.401.375.401h1.904c2.102 0 3.054-.702 3.054-2.078m-9.039-5.985h6.16c4.933 0 7.385 1.955 7.385 5.759 0 2.504-1.202 4.157-3.027 5.083l3.879 5.884c.126.176.176.325.176.451 0 .225-.201.35-.576.35h-3.38c-.702 0-1.027-.201-1.377-.75l-2.831-4.557c-.175-.277-.325-.353-.65-.353h-1.678c-.299 0-.375.076-.375.377v4.632c0 .45-.201.651-.676.651h-3.03c-.449 0-.651-.201-.651-.651v-16.224c0-.45.202-.652.651-.652"/><path d="m47.356 56.2222c0-3.106-2.127-5.108-4.883-5.108-2.778 0-4.856 2.029-4.856 5.108 0 3.054 2.053 5.058 4.832 5.058 2.754 0 4.907-2.028 4.907-5.058m-4.883-9.114c5.459 0 9.389 3.781 9.389 9.09 0 5.331-3.954 9.088-9.438 9.088-5.383 0-9.314-3.732-9.314-9.04 0-5.331 3.957-9.138 9.363-9.138"/><path d="m54.1134 61.1816c.276 0 .651.076 1.102.076 1.102 0 1.853-.853 1.853-2.48v-10.694c0-.449.201-.651.677-.651h3.028c.451 0 .652.202.652.651v10.994c0 3.807-1.553 6.186-5.634 6.186-.676 0-1.452-.052-1.928-.178-.475-.123-.576-.325-.524-.825l.274-2.454c.051-.477.175-.625.5-.625"/><path d="m66.2032 47.4331h10.516c.451 0 .676.202.676.651v2.704c0 .476-.225.651-.676.651h-6.434c-.301 0-.377.102-.377.377v1.952c0 .301.076.375.377.375h5.607c.45 0 .652.201.652.677v2.679c0 .452-.202.65-.652.65h-5.607c-.301 0-.377.1-.377.377v2.052c0 .276.076.376.377.376h6.458c.451 0 .677.175.677.651v2.704c0 .45-.226.651-.677.651h-10.54c-.451 0-.651-.201-.651-.651v-16.225c0-.449.2-.651.651-.651"/><path d="m95.6612 62.3555c0 .176-.125.351-.376.577-1.751 1.452-4.031 2.354-6.558 2.354-5.334 0-9.316-3.806-9.316-8.989 0-5.308 4.006-9.19 9.515-9.19 2.554 0 4.756.927 6.461 2.355.198.176.298.326.298.476 0 .149-.048.275-.174.45l-1.452 2.053c-.151.226-.301.326-.476.326-.151 0-.326-.076-.5-.202-1.151-.826-2.554-1.452-4.181-1.452-2.88 0-4.982 2.054-4.982 5.109 0 2.954 2.078 5.057 4.982 5.057 1.677 0 3.054-.575 4.232-1.477.198-.15.349-.225.499-.225.175 0 .301.099.45.3l1.428 2.052c.101.151.15.301.15.426"/><path d="m101.6871 51.4394h-3.956c-.451 0-.652-.199-.652-.651v-2.704c0-.45.201-.651.652-.651h13.02c.451 0 .65.201.65.651v2.704c0 .452-.199.651-.65.651h-3.956c-.275 0-.377.102-.377.376v12.494c0 .449-.198.651-.649.651h-3.056c-.45 0-.649-.202-.649-.651v-12.494c0-.274-.103-.376-.377-.376"/></g><path d="m100 34.6671c0-5.104-2.771-9.861-7.231-12.414l-35.538-20.333c-2.195-1.256-4.696-1.92-7.231-1.92s-5.036.664-7.231 1.92l-35.538 20.333c-4.46 2.553-7.231 7.31-7.231 12.414v40.666c0 5.105 2.771 9.861 7.232 12.413l35.536 20.333c2.196 1.257 4.697 1.921 7.232 1.921s5.036-.664 7.231-1.921l35.538-20.333c2.325-1.33 4.184-3.263 5.438-5.528 1.152-2.08 1.793-4.442 1.793-6.885z" fill="#336799"/><path d="m59.1367 64.6173c-.147.12-.355.282-.593.461-.119-.094-.24-.19-.296-.259-1.109-1.343-3.634-5.099-4.154-5.73-.38-.461-1.045-1.21-1.263-1.285.634-1.066 1.742-2.984 2.85-4.859.228.309.469.632.731.985 0 0 1.112 1.729 2.08 4.27.607 1.283.902 3.252.902 3.252l.399.139c.017.338.068.755.148 1.186-.194.883-.494 1.457-.804 1.84m8.512-29.498 1.717-6.572.164-.264s.513-.417.799-.857c0 0 .223-.332.287-.68 0 0 .134-.45.237-.716 7.452 6.76 18.53 16.816 22.719 20.647v-12.01c0-2.845-1.532-5.474-4.018-6.897l-35.536-20.333c-1.243-.711-2.63-1.067-4.018-1.067-1.387 0-2.774.356-4.017 1.067l-35.536 20.333c-2.487 1.423-4.018 4.052-4.018 6.897v12.01c5.061-4.569 21.943-19.718 21.943-19.718.151-.135.386-.259.682-.259.327 0 .561.144.712.291l7.495 7.223c.363.362.397.916.166 1.261l-6.398 9.603c-.32.504-.155 1.077.203 1.356.398.313.956.316 1.353-.052l29.658-26.935c.201-.183.468-.255.675-.255s.476.071.676.255c0 0 2.275 2.063 5.605 5.082-.066.125-.155.287-.28.504 0 0-.248.48-.368.819-.073.208-.232.678-.319 1.054-.054.236-.222.857-.222.857s-.076.349-.12.484c-.379 1.165-1.49 3.064-1.654 3.397l-1.032 2.282s-.687 1.437-1.187 3.312c0 0-2.254 3-4.385 5.856l-.006-.012c-.215.215-.716.564-1.27.715-.292-.384-.659-.944-.683-.976-.057-.079-.174-.299-.097-.582.078-.283.489-.855.489-.855.196-.201.227-.528.121-.684-.107-.159-.297-.246-.361-.283-.061-.036-.117-.167-.108-.261.009-.095-.158-.164-.158-.164l-.299.075-.075.009.017-.381s-.011-.092-.141-.107c-.064-.008-.286-.199-.274-.269.013-.07.07-.262.07-.553 0-.239-.225-.203-.225-.203s-.981-.019-1.051-.028c-.068-.008-.306-.141-.377-.232-.07-.092-.183-.194-.183-.194-.155-.084-1.097-.26-1.235-.248-.137.011-.734-.094-.79-.144-.056-.052-.338-.171-.558-.289-.22-.117-1.053.513-1.258.655-.204.14-.978.972-1.442 1.763-.098.166-.164.324-.217.485-.001.001-.002 0-.004.001l-.453.969s-.187.097-.281.187c-.193.173-.295.54-.295.54s-.214 1.09-.351 1.588c0 0-.129.939-.209 1.324-.048.234-.21 1.624-.247 1.844-.037.219-.131 1.248-.131 1.248s-.078.611-.077.993c.001.312.191.455.235.488.043.032.331.222.331.222s-.261 1.33.337 2.31c0 0 .025-.307.326-.822 0 0 .389.343.158 1.289 0 0 .538-.224.624-1.298l.209-.677s.103.666.802 1.036c0 0-.538-1.218-.57-1.727-.035-.576.046-1.15.046-1.15s.256.335.188 1.01c0 0 .534-1.276-.158-3.383-.152-.547-.345-1.58-.558-2.469-.047-.192-.155-.971-.168-1.109-.019-.182.083-.275.083-.275.026.009.258.245.345.303.079.19.212.462.449.777l.047.046s.552.686 1.824 1.105c.011.005.032.014.038.017.14.059.637.174 1.079.178.49.003.736-.167.978-.223.235-.055.469.125.469.125s.242.307.509.644l-.001.015s.158.293.001.596c-.835.843-2.006 2.23-1.985 3.404 0 0 .005.008.005.009-1.336 2.852-3.131 7.364-3.334 7.823 0 0-.24.568-.25 1.003-.024.322.315.553.523.82.127.163.475.671.625.849.559.66 1.112 1.175 1.778 1.836l4.718 4.218c-.389.241-.804.478-1.232.684.046 1.83 2.707 4.286 2.707 4.286 1.974.084 2.843-1.716 2.843-1.716-.03-1.739-1.514-4.001-1.514-4.001l-.262-.43c.196-.324.356-.678.489-1.06.118.327.258.648.451.936 0 0 1.042 1.466 2.752 1.757.671.555 4.324 3.36 10.863 4.634.051.11.101.23.151.374.124.363.51 1.751.629 2.059.229.585.714 1.642 1.464 2.82l1.812 2.849.423-.068c.171.275.365.709.213 1.107 0 0-1.409.948.033 2.706 0 0 .315.205.601.165.514-.072 1.17.091 1.989 1.015 0 0 1.068 1.256 2.195 1.085l.9-.257s.782-.197-.571-1.915c-.956-1.214-1.097-1.667-1.558-2.117s-1.068-.846-1.068-.846l-.916-2.373.148-.29-1.246-2.821-2.18-5.247c-.104-.321.01-.896-.367-1.313.002-.002-.167-.199-.317-.298-.23-.164-.48-.315-.74-.447l-6.573-4.283s2.12.112 7.732-3.53c.642.6 2.056 1.285 3.127 1.542 2.005.482 4.07 1.285 4.07 1.285s.156-.08.244-.404c0 0 1.244.282 2.227.851.085.065.128.141.175.251 0 0-.147.239-.125.375.023.136.5.318.5.318s.773 1.249 1.48.911c0 0 .888-.277 1.083-.879 0 0 .203-1.032 1.759-1.624 0 0 1.556-.592 1.898-1.644 0 0 .531-1.225-1.546-.769l-2.664.915-1.702.561-2.393-1.272c.003-.128-.029-.173-.029-.173l-1.675-.776c-.903-.573-3.136-1.968-4.552-2.644-.357-.201-.778-.422-.777-.424-.688-.34-.571-.657-1.956-.229l-9.731 2.693c-.387-.757-1.268-2.572-1.475-3.81l-1.13-3.604s1.377-1.126.776-2.348c0 0-.092-.217-.725-.748 0 0-.668-.556-1.488-1.347 1.484-2.898 3.646-6.926 4.213-8.343 0 0 .66-1.299 1.038-3.025" fill="#fff"/></g></svg>